<svg id="visual" viewBox="0 0 900 600" width="900" height="600" xmlns="http://www.w3.org/2000/svg" xmlns:xlink="http://www.w3.org/1999/xlink" version="1.1"><rect x="0" y="0" width="900" height="600" fill="#BFDDF5"></rect><path d="M0 477L25 488.8C50 500.7 100 524.3 150 531.5C200 538.7 250 529.3 300 523.7C350 518 400 516 450 506.8C500 497.7 550 481.3 600 483.7C650 486 700 507 750 517.7C800 528.3 850 528.7 875 528.8L900 529L900 601L875 601C850 601 800 601 750 601C700 601 650 601 600 601C550 601 500 601 450 601C400 601 350 601 300 601C250 601 200 601 150 601C100 601 50 601 25 601L0 601Z" fill="#A9CFF2" stroke-linecap="round" stroke-linejoin="miter"></path></svg>